<svg width="32" height="32" viewBox="0 0 32 32" fill="none" xmlns="http://www.w3.org/2000/svg">
<g id="foundation:social-facebook">
<path id="Vector" d="M26.1458 4.4624H5.72921C5.39325 4.4624 5.07106 4.59586 4.83351 4.83341C4.59595 5.07097 4.46249 5.39316 4.46249 5.72912V26.146C4.46258 26.4819 4.59607 26.804 4.83362 27.0415C5.07116 27.279 5.39331 27.4124 5.72921 27.4124H16.7207V18.525H13.7298V15.0615H16.7207V12.507C16.7207 9.54264 18.5312 7.92881 21.1755 7.92881C22.4422 7.92881 23.5308 8.02284 23.8482 8.06523V11.1632L22.0141 11.1641C20.5759 11.1641 20.2977 11.8475 20.2977 12.8503V15.0618H23.7274L23.2809 18.5253H20.2977V27.4124H26.1461C26.482 27.4123 26.8041 27.2788 27.0416 27.0413C27.2791 26.8037 27.4125 26.4816 27.4125 26.1457V5.72912C27.4125 5.39316 27.279 5.07097 27.0415 4.83341C26.8039 4.59586 26.4817 4.4624 26.1458 4.4624Z" fill="#555555"/>
</g>
</svg>
