<svg width="32" height="32" viewBox="0 0 32 32" fill="none" xmlns="http://www.w3.org/2000/svg">
<g id="foundation:social-twitter">
<path id="Vector" d="M28.2094 8.32566C27.2904 8.73279 26.3155 8.99989 25.3174 9.11807C26.3687 8.48899 27.1555 7.49908 27.5311 6.33283C26.5428 6.91951 25.4614 7.33263 24.3337 7.55428C23.8625 7.05175 23.2932 6.65133 22.661 6.37784C22.0287 6.10435 21.347 5.96361 20.6582 5.96436C17.8774 5.96436 15.6226 8.21856 15.6226 11C15.6226 11.3943 15.6672 11.779 15.7533 12.1478C11.5681 11.9377 7.85783 9.9328 5.37413 6.88587C4.92631 7.65439 4.69099 8.52822 4.69232 9.4177C4.69166 10.2468 4.89581 11.0632 5.28662 11.7944C5.67743 12.5255 6.2428 13.1489 6.9325 13.6089C6.13298 13.5835 5.35108 13.3676 4.65184 12.9791C4.6512 13.0001 4.6512 13.0208 4.6512 13.0425C4.6512 15.4816 6.3868 17.5168 8.69008 17.98C7.94843 18.1807 7.17083 18.2102 6.41612 18.066C7.05681 20.0662 8.9164 21.5225 11.1199 21.5633C9.33617 22.9632 7.13347 23.7224 4.86604 23.7191C4.45964 23.7191 4.05897 23.6955 3.66467 23.6486C5.96711 25.128 8.64678 25.9132 11.3835 25.9105C20.6458 25.9105 25.7107 18.2378 25.7107 11.5842C25.7107 11.3662 25.7056 11.1485 25.696 10.9321C26.6824 10.22 27.5336 9.33727 28.2094 8.32566Z" fill="#555555"/>
</g>
</svg>
