<svg width="32" height="32" viewBox="0 0 32 32" fill="none" xmlns="http://www.w3.org/2000/svg">
<g id="foundation:social-skype">
<path id="Vector" d="M27.503 18.5812C27.6799 17.7712 27.7743 16.9313 27.7743 16.0685C27.7743 9.60325 22.5334 4.36172 16.0675 4.36172C15.3854 4.36172 14.7173 4.42101 14.0661 4.53353C12.9853 3.85104 11.7329 3.48957 10.4547 3.49122C6.70586 3.49122 3.66562 6.53018 3.66562 10.2806C3.66562 11.5333 4.00636 12.706 4.59924 13.7129C4.44134 14.4882 4.36189 15.2775 4.36209 16.0688C4.36209 22.5337 9.60234 27.7749 16.0675 27.7749C16.8004 27.7749 17.5163 27.7063 18.2124 27.5788C19.1988 28.1084 20.3011 28.3849 21.4206 28.3837C25.1701 28.3837 28.2097 25.3457 28.2097 21.5953C28.2108 20.5494 27.9689 19.5176 27.503 18.5812ZM22.0725 21.6635C21.5303 22.4288 20.7299 23.0363 19.694 23.467C18.6666 23.8947 17.4369 24.1112 16.035 24.1112C14.3546 24.1112 12.9447 23.8141 11.8444 23.2308C11.0581 22.8049 10.4094 22.2305 9.91726 21.5204C9.41969 20.8035 9.16693 20.0914 9.16693 19.4051C9.16693 18.977 9.33204 18.6051 9.65589 18.3007C9.97655 17.9988 10.3871 17.8452 10.8777 17.8452C11.2796 17.8452 11.627 17.9663 11.9085 18.2041C12.1778 18.4329 12.4093 18.7702 12.5941 19.2075C12.802 19.6818 13.0286 20.0834 13.2673 20.3996C13.4962 20.7021 13.8274 20.9587 14.2494 21.1579C14.673 21.3591 15.2455 21.4614 15.9493 21.4614C16.917 21.4614 17.711 21.2545 18.3068 20.8462C18.8904 20.4481 19.1738 19.9706 19.1738 19.3854C19.1738 18.9235 19.0252 18.5598 18.7208 18.2755C18.4027 17.9778 17.9829 17.7457 17.4726 17.587C16.9406 17.4209 16.2174 17.2421 15.3242 17.0547C14.1098 16.7946 13.078 16.486 12.2563 16.1367C11.417 15.7797 10.74 15.2843 10.2456 14.665C9.74323 14.0351 9.48822 13.2459 9.48822 12.3184C9.48822 11.4341 9.75534 10.6376 10.2832 9.94941C10.8069 9.26633 11.5716 8.73593 12.5549 8.37192C13.5271 8.01205 14.6829 7.831 15.9898 7.831C17.0353 7.831 17.9545 7.9518 18.7215 8.18959C19.4931 8.4312 20.1434 8.7541 20.655 9.15445C21.1688 9.55671 21.5526 9.9867 21.792 10.4333C22.0358 10.8846 22.1592 11.3344 22.1592 11.7692C22.1592 12.1874 21.9976 12.5667 21.6785 12.8985C21.3578 13.2316 20.954 13.4002 20.4765 13.4002C20.043 13.4002 19.7035 13.295 19.4683 13.0869C19.249 12.8931 19.0214 12.5909 18.7699 12.1564C18.4776 11.6024 18.1251 11.1651 17.7196 10.8566C17.326 10.5576 16.6681 10.4059 15.7654 10.4059C14.9251 10.4059 14.2427 10.5738 13.7368 10.9063C13.2482 11.2263 13.0114 11.5929 13.0114 12.0286C13.0114 12.2954 13.0875 12.5179 13.2444 12.7095C13.4117 12.9135 13.6454 13.0904 13.9428 13.2399C14.2503 13.3941 14.5669 13.5175 14.8843 13.6048C15.2107 13.6957 15.7555 13.8296 16.5049 14.002C17.4512 14.2063 18.3224 14.4336 19.0918 14.68C19.8712 14.9296 20.5453 15.2375 21.0945 15.5951C21.6556 15.9594 22.0996 16.429 22.4154 16.9887C22.7307 17.5513 22.8904 18.2439 22.8904 19.05C22.8904 20.0146 22.6153 20.8937 22.0725 21.6635Z" fill="#555555"/>
</g>
</svg>
