<svg width="32" height="32" viewBox="0 0 32 32" fill="none" xmlns="http://www.w3.org/2000/svg">
<g id="foundation:social-linkedin">
<path id="Vector" d="M25.7126 4.4624H6.15665C5.22144 4.4624 4.46249 5.2035 4.46249 6.11608V25.7565C4.46249 26.6704 5.22144 27.4124 6.15665 27.4124H25.7126C26.6485 27.4124 27.4125 26.6704 27.4125 25.7565V6.11608C27.4125 5.2035 26.6485 4.4624 25.7126 4.4624ZM11.2691 24.019H7.86356V13.0671H11.2691V24.019ZM9.56632 11.5696C9.30711 11.5696 9.05043 11.5185 8.81097 11.4193C8.5715 11.32 8.35394 11.1746 8.1707 10.9912C7.98747 10.8079 7.84216 10.5902 7.74308 10.3507C7.644 10.1112 7.59309 9.85445 7.59326 9.59523C7.59326 9.07199 7.80112 8.57017 8.17111 8.20018C8.5411 7.83019 9.04291 7.62233 9.56616 7.62233C10.0894 7.62233 10.5912 7.83019 10.9612 8.20018C11.3312 8.57017 11.5391 9.07199 11.5391 9.59523C11.5391 10.1186 11.3313 10.6205 10.9614 10.9907C10.5914 11.361 10.0897 11.5691 9.56632 11.5696ZM24.0178 24.019H20.6177V18.6933C20.6177 17.4228 20.5928 15.7892 18.8483 15.7892C17.0767 15.7892 16.8067 17.1729 16.8067 18.6012V24.0193H13.4041V13.0671H16.6697V14.5626H16.7162C17.1707 13.702 18.2813 12.7939 19.9375 12.7939C23.3819 12.7939 24.0181 15.0615 24.0181 18.0115V24.019H24.0178Z" fill="#555555"/>
</g>
</svg>
